<?xml version="1.0" encoding="UTF-8" standalone="no"?>
<!DOCTYPE svg PUBLIC "-//W3C//DTD SVG 1.1//EN"
 "http://www.w3.org/Graphics/SVG/1.1/DTD/svg11.dtd">
<!-- Generated by graphviz version 2.47.0 (20210316.0004)
 -->
<!-- Title: dependencies Pages: 1 -->
<svg width="2568pt" height="284pt"
 viewBox="0.00 0.00 2568.00 284.00" xmlns="http://www.w3.org/2000/svg" xmlns:xlink="http://www.w3.org/1999/xlink">
<g id="graph0" class="graph" transform="scale(1 1) rotate(0) translate(4 280)">
<title>dependencies</title>
<polygon fill="white" stroke="transparent" points="-4,4 -4,-280 2564,-280 2564,4 -4,4"/>
<text text-anchor="start" x="1259.01" y="-42.4" font-family="sans-serif" font-weight="bold" font-size="14.00">Legend</text>
<polygon fill="#ffffb3" stroke="transparent" points="1046,-10 1046,-30 1066,-30 1066,-10 1046,-10"/>
<text text-anchor="start" x="1069.63" y="-15.4" font-family="sans-serif" font-size="14.00"> &#160;Declarations</text>
<polygon fill="#8dd3c7" stroke="transparent" points="1159,-10 1159,-30 1179,-30 1179,-10 1159,-10"/>
<text text-anchor="start" x="1182.73" y="-15.4" font-family="sans-serif" font-size="14.00"> &#160;Module</text>
<polygon fill="#80b1d3" stroke="transparent" points="1245,-10 1245,-30 1265,-30 1265,-10 1245,-10"/>
<text text-anchor="start" x="1268.78" y="-15.4" font-family="sans-serif" font-size="14.00"> &#160;Bootstrap</text>
<polygon fill="#fdb462" stroke="transparent" points="1342,-10 1342,-30 1362,-30 1362,-10 1342,-10"/>
<text text-anchor="start" x="1365.67" y="-15.4" font-family="sans-serif" font-size="14.00"> &#160;Providers</text>
<polygon fill="#fb8072" stroke="transparent" points="1438,-10 1438,-30 1458,-30 1458,-10 1438,-10"/>
<text text-anchor="start" x="1461.73" y="-15.4" font-family="sans-serif" font-size="14.00"> &#160;Exports</text>
<g id="clust1" class="cluster">
<title>cluster_AppModule</title>
<polygon fill="none" stroke="black" stroke-dasharray="1,5" points="8,-70 8,-268 2552,-268 2552,-70 8,-70"/>
</g>
<g id="clust2" class="cluster">
<title>cluster_AppModule_declarations</title>
<polygon fill="none" stroke="black" points="168,-78 168,-130 2544,-130 2544,-78 168,-78"/>
</g>
<g id="clust19" class="cluster">
<title>cluster_AppModule_imports</title>
<polygon fill="none" stroke="black" points="16,-78 16,-130 160,-130 160,-78 16,-78"/>
</g>
<g id="clust21" class="cluster">
<title>cluster_AppModule_bootstrap</title>
<polygon fill="none" stroke="black" points="1251,-208 1251,-260 1375,-260 1375,-208 1251,-208"/>
</g>
<!-- AlertasComponent -->
<g id="node1" class="node">
<title>AlertasComponent</title>
<polygon fill="#ffffb3" stroke="black" points="2535.75,-122 2414.25,-122 2414.25,-86 2535.75,-86 2535.75,-122"/>
<text text-anchor="middle" x="2475" y="-99.8" font-family="Times,serif" font-size="14.00">AlertasComponent</text>
</g>
<!-- AppModule -->
<g id="node17" class="node">
<title>AppModule</title>
<polygon fill="#8dd3c7" stroke="black" points="1354.66,-187 1351.66,-191 1330.66,-191 1327.66,-187 1271.34,-187 1271.34,-151 1354.66,-151 1354.66,-187"/>
<text text-anchor="middle" x="1313" y="-164.8" font-family="Times,serif" font-size="14.00">AppModule</text>
</g>
<!-- AlertasComponent&#45;&gt;AppModule -->
<g id="edge1" class="edge">
<title>AlertasComponent&#45;&gt;AppModule</title>
<path fill="none" stroke="black" d="M2475,-122.32C2475,-145.66 2475,-183 2475,-183 2475,-183 1364.7,-183 1364.7,-183"/>
<polygon fill="black" stroke="black" points="1364.7,-179.5 1354.7,-183 1364.7,-186.5 1364.7,-179.5"/>
</g>
<!-- AppComponent -->
<g id="node2" class="node">
<title>AppComponent</title>
<polygon fill="#ffffb3" stroke="black" points="2395.94,-122 2290.06,-122 2290.06,-86 2395.94,-86 2395.94,-122"/>
<text text-anchor="middle" x="2343" y="-99.8" font-family="Times,serif" font-size="14.00">AppComponent</text>
</g>
<!-- AppComponent&#45;&gt;AppModule -->
<g id="edge2" class="edge">
<title>AppComponent&#45;&gt;AppModule</title>
<path fill="none" stroke="black" d="M2343,-122.16C2343,-144.35 2343,-179 2343,-179 2343,-179 1364.97,-179 1364.97,-179"/>
<polygon fill="black" stroke="black" points="1364.97,-175.5 1354.97,-179 1364.97,-182.5 1364.97,-175.5"/>
</g>
<!-- CadastroComponent -->
<g id="node3" class="node">
<title>CadastroComponent</title>
<polygon fill="#ffffb3" stroke="black" points="2272.59,-122 2141.41,-122 2141.41,-86 2272.59,-86 2272.59,-122"/>
<text text-anchor="middle" x="2207" y="-99.8" font-family="Times,serif" font-size="14.00">CadastroComponent</text>
</g>
<!-- CadastroComponent&#45;&gt;AppModule -->
<g id="edge3" class="edge">
<title>CadastroComponent&#45;&gt;AppModule</title>
<path fill="none" stroke="black" d="M2207,-122.28C2207,-143.32 2207,-175 2207,-175 2207,-175 1364.92,-175 1364.92,-175"/>
<polygon fill="black" stroke="black" points="1364.92,-171.5 1354.92,-175 1364.92,-178.5 1364.92,-171.5"/>
</g>
<!-- HistoriaComponent -->
<g id="node4" class="node">
<title>HistoriaComponent</title>
<polygon fill="#ffffb3" stroke="black" points="2123.43,-122 1996.57,-122 1996.57,-86 2123.43,-86 2123.43,-122"/>
<text text-anchor="middle" x="2060" y="-99.8" font-family="Times,serif" font-size="14.00">HistoriaComponent</text>
</g>
<!-- HistoriaComponent&#45;&gt;AppModule -->
<g id="edge4" class="edge">
<title>HistoriaComponent&#45;&gt;AppModule</title>
<path fill="none" stroke="black" d="M2060,-122.31C2060,-142.15 2060,-171 2060,-171 2060,-171 1364.76,-171 1364.76,-171"/>
<polygon fill="black" stroke="black" points="1364.76,-167.5 1354.76,-171 1364.76,-174.5 1364.76,-167.5"/>
</g>
<!-- InicioComponent -->
<g id="node5" class="node">
<title>InicioComponent</title>
<polygon fill="#ffffb3" stroke="black" points="1978.99,-122 1865.01,-122 1865.01,-86 1978.99,-86 1978.99,-122"/>
<text text-anchor="middle" x="1922" y="-99.8" font-family="Times,serif" font-size="14.00">InicioComponent</text>
</g>
<!-- InicioComponent&#45;&gt;AppModule -->
<g id="edge5" class="edge">
<title>InicioComponent&#45;&gt;AppModule</title>
<path fill="none" stroke="black" d="M1922,-122.22C1922,-140.83 1922,-167 1922,-167 1922,-167 1364.86,-167 1364.86,-167"/>
<polygon fill="black" stroke="black" points="1364.86,-163.5 1354.86,-167 1364.86,-170.5 1364.86,-163.5"/>
</g>
<!-- LoginComponent -->
<g id="node6" class="node">
<title>LoginComponent</title>
<polygon fill="#ffffb3" stroke="black" points="1847.28,-122 1732.72,-122 1732.72,-86 1847.28,-86 1847.28,-122"/>
<text text-anchor="middle" x="1790" y="-99.8" font-family="Times,serif" font-size="14.00">LoginComponent</text>
</g>
<!-- LoginComponent&#45;&gt;AppModule -->
<g id="edge6" class="edge">
<title>LoginComponent&#45;&gt;AppModule</title>
<path fill="none" stroke="black" d="M1790,-122.02C1790,-139.37 1790,-163 1790,-163 1790,-163 1364.91,-163 1364.91,-163"/>
<polygon fill="black" stroke="black" points="1364.91,-159.5 1354.91,-163 1364.91,-166.5 1364.91,-159.5"/>
</g>
<!-- MenuComponent -->
<g id="node7" class="node">
<title>MenuComponent</title>
<polygon fill="#ffffb3" stroke="black" points="1714.99,-122 1601.01,-122 1601.01,-86 1714.99,-86 1714.99,-122"/>
<text text-anchor="middle" x="1658" y="-99.8" font-family="Times,serif" font-size="14.00">MenuComponent</text>
</g>
<!-- MenuComponent&#45;&gt;AppModule -->
<g id="edge7" class="edge">
<title>MenuComponent&#45;&gt;AppModule</title>
<path fill="none" stroke="black" d="M1658,-122.01C1658,-138.05 1658,-159 1658,-159 1658,-159 1364.96,-159 1364.96,-159"/>
<polygon fill="black" stroke="black" points="1364.96,-155.5 1354.96,-159 1364.96,-162.5 1364.96,-155.5"/>
</g>
<!-- PostagemDeleteComponent -->
<g id="node8" class="node">
<title>PostagemDeleteComponent</title>
<polygon fill="#ffffb3" stroke="black" points="1583.3,-122 1410.7,-122 1410.7,-86 1583.3,-86 1583.3,-122"/>
<text text-anchor="middle" x="1497" y="-99.8" font-family="Times,serif" font-size="14.00">PostagemDeleteComponent</text>
</g>
<!-- PostagemDeleteComponent&#45;&gt;AppModule -->
<g id="edge8" class="edge">
<title>PostagemDeleteComponent&#45;&gt;AppModule</title>
<path fill="none" stroke="black" d="M1497,-122.12C1497,-136.78 1497,-155 1497,-155 1497,-155 1364.75,-155 1364.75,-155"/>
<polygon fill="black" stroke="black" points="1364.75,-151.5 1354.75,-155 1364.75,-158.5 1364.75,-151.5"/>
</g>
<!-- PostagemEditComponent -->
<g id="node9" class="node">
<title>PostagemEditComponent</title>
<polygon fill="#ffffb3" stroke="black" points="1392.6,-122 1233.4,-122 1233.4,-86 1392.6,-86 1392.6,-122"/>
<text text-anchor="middle" x="1313" y="-99.8" font-family="Times,serif" font-size="14.00">PostagemEditComponent</text>
</g>
<!-- PostagemEditComponent&#45;&gt;AppModule -->
<g id="edge9" class="edge">
<title>PostagemEditComponent&#45;&gt;AppModule</title>
<path fill="none" stroke="black" d="M1313,-122.11C1313,-122.11 1313,-140.99 1313,-140.99"/>
<polygon fill="black" stroke="black" points="1309.5,-140.99 1313,-150.99 1316.5,-140.99 1309.5,-140.99"/>
</g>
<!-- PostagensComponent -->
<g id="node10" class="node">
<title>PostagensComponent</title>
<polygon fill="#ffffb3" stroke="black" points="1215.82,-122 1078.18,-122 1078.18,-86 1215.82,-86 1215.82,-122"/>
<text text-anchor="middle" x="1147" y="-99.8" font-family="Times,serif" font-size="14.00">PostagensComponent</text>
</g>
<!-- PostagensComponent&#45;&gt;AppModule -->
<g id="edge10" class="edge">
<title>PostagensComponent&#45;&gt;AppModule</title>
<path fill="none" stroke="black" d="M1147,-122.12C1147,-136.78 1147,-155 1147,-155 1147,-155 1261.11,-155 1261.11,-155"/>
<polygon fill="black" stroke="black" points="1261.11,-158.5 1271.11,-155 1261.11,-151.5 1261.11,-158.5"/>
</g>
<!-- PropositoComponent -->
<g id="node11" class="node">
<title>PropositoComponent</title>
<polygon fill="#ffffb3" stroke="black" points="1060.5,-122 925.5,-122 925.5,-86 1060.5,-86 1060.5,-122"/>
<text text-anchor="middle" x="993" y="-99.8" font-family="Times,serif" font-size="14.00">PropositoComponent</text>
</g>
<!-- PropositoComponent&#45;&gt;AppModule -->
<g id="edge11" class="edge">
<title>PropositoComponent&#45;&gt;AppModule</title>
<path fill="none" stroke="black" d="M993,-122.01C993,-138.05 993,-159 993,-159 993,-159 1261.17,-159 1261.17,-159"/>
<polygon fill="black" stroke="black" points="1261.17,-162.5 1271.17,-159 1261.17,-155.5 1261.17,-162.5"/>
</g>
<!-- RodapeComponent -->
<g id="node12" class="node">
<title>RodapeComponent</title>
<polygon fill="#ffffb3" stroke="black" points="907.1,-122 782.9,-122 782.9,-86 907.1,-86 907.1,-122"/>
<text text-anchor="middle" x="845" y="-99.8" font-family="Times,serif" font-size="14.00">RodapeComponent</text>
</g>
<!-- RodapeComponent&#45;&gt;AppModule -->
<g id="edge12" class="edge">
<title>RodapeComponent&#45;&gt;AppModule</title>
<path fill="none" stroke="black" d="M845,-122.02C845,-139.37 845,-163 845,-163 845,-163 1261.06,-163 1261.06,-163"/>
<polygon fill="black" stroke="black" points="1261.06,-166.5 1271.06,-163 1261.06,-159.5 1261.06,-166.5"/>
</g>
<!-- SobreNosComponent -->
<g id="node13" class="node">
<title>SobreNosComponent</title>
<polygon fill="#ffffb3" stroke="black" points="765.04,-122 628.96,-122 628.96,-86 765.04,-86 765.04,-122"/>
<text text-anchor="middle" x="697" y="-99.8" font-family="Times,serif" font-size="14.00">SobreNosComponent</text>
</g>
<!-- SobreNosComponent&#45;&gt;AppModule -->
<g id="edge13" class="edge">
<title>SobreNosComponent&#45;&gt;AppModule</title>
<path fill="none" stroke="black" d="M697,-122.22C697,-140.83 697,-167 697,-167 697,-167 1261.14,-167 1261.14,-167"/>
<polygon fill="black" stroke="black" points="1261.14,-170.5 1271.14,-167 1261.14,-163.5 1261.14,-170.5"/>
</g>
<!-- TemaComponent -->
<g id="node14" class="node">
<title>TemaComponent</title>
<polygon fill="#ffffb3" stroke="black" points="610.7,-122 497.3,-122 497.3,-86 610.7,-86 610.7,-122"/>
<text text-anchor="middle" x="554" y="-99.8" font-family="Times,serif" font-size="14.00">TemaComponent</text>
</g>
<!-- TemaComponent&#45;&gt;AppModule -->
<g id="edge14" class="edge">
<title>TemaComponent&#45;&gt;AppModule</title>
<path fill="none" stroke="black" d="M554,-122.31C554,-142.15 554,-171 554,-171 554,-171 1261.11,-171 1261.11,-171"/>
<polygon fill="black" stroke="black" points="1261.11,-174.5 1271.11,-171 1261.11,-167.5 1261.11,-174.5"/>
</g>
<!-- TemaDeleteComponent -->
<g id="node15" class="node">
<title>TemaDeleteComponent</title>
<polygon fill="#ffffb3" stroke="black" points="479.74,-122 330.26,-122 330.26,-86 479.74,-86 479.74,-122"/>
<text text-anchor="middle" x="405" y="-99.8" font-family="Times,serif" font-size="14.00">TemaDeleteComponent</text>
</g>
<!-- TemaDeleteComponent&#45;&gt;AppModule -->
<g id="edge15" class="edge">
<title>TemaDeleteComponent&#45;&gt;AppModule</title>
<path fill="none" stroke="black" d="M405,-122.28C405,-143.32 405,-175 405,-175 405,-175 1261.33,-175 1261.33,-175"/>
<polygon fill="black" stroke="black" points="1261.33,-178.5 1271.33,-175 1261.33,-171.5 1261.33,-178.5"/>
</g>
<!-- TemaEditComponent -->
<g id="node16" class="node">
<title>TemaEditComponent</title>
<polygon fill="#ffffb3" stroke="black" points="312.04,-122 175.96,-122 175.96,-86 312.04,-86 312.04,-122"/>
<text text-anchor="middle" x="244" y="-99.8" font-family="Times,serif" font-size="14.00">TemaEditComponent</text>
</g>
<!-- TemaEditComponent&#45;&gt;AppModule -->
<g id="edge16" class="edge">
<title>TemaEditComponent&#45;&gt;AppModule</title>
<path fill="none" stroke="black" d="M244,-122.16C244,-144.35 244,-179 244,-179 244,-179 1261.09,-179 1261.09,-179"/>
<polygon fill="black" stroke="black" points="1261.09,-182.5 1271.09,-179 1261.09,-175.5 1261.09,-182.5"/>
</g>
<!-- AppComponent  -->
<g id="node19" class="node">
<title>AppComponent </title>
<polygon fill="#80b1d3" stroke="black" points="1367.44,-252 1258.56,-252 1258.56,-216 1367.44,-216 1367.44,-252"/>
<text text-anchor="middle" x="1313" y="-229.8" font-family="Times,serif" font-size="14.00">AppComponent </text>
</g>
<!-- AppModule&#45;&gt;AppComponent  -->
<g id="edge18" class="edge">
<title>AppModule&#45;&gt;AppComponent </title>
<path fill="none" stroke="black" stroke-dasharray="1,5" d="M1313,-187.11C1313,-187.11 1313,-205.99 1313,-205.99"/>
<polygon fill="black" stroke="black" points="1309.5,-205.99 1313,-215.99 1316.5,-205.99 1309.5,-205.99"/>
</g>
<!-- AppRoutingModule -->
<g id="node18" class="node">
<title>AppRoutingModule</title>
<polygon fill="#8dd3c7" stroke="black" points="152.27,-122 149.27,-126 128.27,-126 125.27,-122 23.73,-122 23.73,-86 152.27,-86 152.27,-122"/>
<text text-anchor="middle" x="88" y="-99.8" font-family="Times,serif" font-size="14.00">AppRoutingModule</text>
</g>
<!-- AppRoutingModule&#45;&gt;AppModule -->
<g id="edge17" class="edge">
<title>AppRoutingModule&#45;&gt;AppModule</title>
<path fill="none" stroke="black" d="M88,-122.32C88,-145.66 88,-183 88,-183 88,-183 1261.19,-183 1261.19,-183"/>
<polygon fill="black" stroke="black" points="1261.19,-186.5 1271.19,-183 1261.19,-179.5 1261.19,-186.5"/>
</g>
</g>
</svg>
